# xmcd
#
# Track frame offsets:
# 150
# 11384
# 23283
# 34801
# 47167
# 59851
# 72365
# 83552
# 96542
# 108599
# 120573
# 133618
# 146026
# 157373
# 168989
# 182259
# 194345
# 207030
# 219083
# 232539
#
# Disc length: 3256 seconds
#
#
# Revision: 0
# Processed by: cddbd v1.5.2PL0 Copyright (c) Steve Scherf et al.
# Submitted via: FreeRIP 2.96 
#
DISCID=0e0cb614
DTITLE=Roy Acuff - Country Music Legends
DYEAR=2006
DGENRE=Country
TTITLE0=No One Will Ever Know
TTITLE1=The Devil's Train
TTITLE2=Ten Little Numbers
TTITLE3=It's Too Late Now to Worry Anymore
TTITLE4=Beautiful Brown Eyes
TTITLE5=Pins and Needles
TTITLE6=Not a Word from Home
TTITLE7=(Our Own) Jole Blon
TTITLE8=(I'm Dying) A Sinner's Death
TTITLE9=Branded Wherever I Go
TTITLE10=Living on the Mountain, Baby Mine
TTITLE11=Be Honest with Me
TTITLE12=Write Me, Sweetheart
TTITLE13=The Songbirds Are Singing in Heaven
TTITLE14=Waiting for My Call to Glory
TTITLE15=You're My Darling
TTITLE16=In the Shadow of the Smokies
TTITLE17=Short Changed in Love
TTITLE18=Farther Along
TTITLE19=Wait for the Light to Shine
EXTD=
EXTT0=
EXTT1=
EXTT2=
EXTT3=
EXTT4=
EXTT5=
EXTT6=
EXTT7=
EXTT8=
EXTT9=
EXTT10=
EXTT11=
EXTT12=
EXTT13=
EXTT14=
EXTT15=
EXTT16=
EXTT17=
EXTT18=
EXTT19=
PLAYORDER=
